# xmcd
# 
# Track frame offsets:
#     150
#     12242
#     31747
#     52075
#     65399
#     76122
#     86353
#     97762
#     115582
#     133224
#     147397
#     167776
# 
# Disc length: 2514
# 
# Revision: 1
# Processed by: cddbd v1.5.2PL0 Copyright (c) Steve Scherf et al.
# Submitted via: fre:ac v1.0.31
# 
DISCID=9009d00c
DTITLE=New Orleans - City of Dreams - Disc 1 - Big Easy Blues
DYEAR=2007
DGENRE=Jazz
TTITLE0=Carnival Time - Al Johnson
TTITLE1=Sing It - Marcia Ball, Irma Thomas, Tracy Nelson
TTITLE2=Drawers Trouble - Chuck Carbo
TTITLE3=Just Because - Johnny Adams
TTITLE4=Don't Mess With My Man - Irma Thomas
TTITLE5=Check Mr. Popeye - Eddie Bo
TTITLE6=You Talk Too Much - Joe Jones
TTITLE7=Big Shot - Marcia Ball
TTITLE8=I Bowed on My Knees - Davell Crawford
TTITLE9=Drink Jax Beer - Ramsey McLean and the Survivors with Charmaine Neville
TTITLE10=Go On Fool - Ruth Brown
TTITLE11=Dollar Got the Blues - Clarence "Gatemouth" Brown
EXTD=
EXTT0=
EXTT1=
EXTT2=
EXTT3=
EXTT4=
EXTT5=
EXTT6=
EXTT7=
EXTT8=
EXTT9=
EXTT10=
EXTT11=
PLAYORDER=
